# xmcd
#
# Track frame offsets:
#	150
#	21093
#	51993
#	68074
#	88529
#	103706
#	123418
#	138966
#	155781
#	171001
#	192633
#	207769
#	224516
#	241364
#	257806
#	275179
#	290316
#	306373
#	324060
#	347378
#
# Disc length: 4846 seconds
#
# Revision: 0
# Processed by: cddbd v1.5.2PL0 Copyright (c) Steve Scherf et al.
# Submitted via: EasyCDDAExtractor 15.3.0.1
#
DISCID=3012ec14
DTITLE=Rocio Durcal - Mis Numero 1... Nostalgias
DYEAR=2017
DGENRE=Latin
TTITLE0=Nostalgias
TTITLE1=Amor Eterno
TTITLE2=Fallaste Corazon
TTITLE3=Costumbres
TTITLE4=Jamas Te Dejare
TTITLE5=Como Tu Mujer
TTITLE6=No Me Vuelvo A Enamorar
TTITLE7=La Gata Bajo La Lluvia
TTITLE8=Hay Amores Y Amores
TTITLE9=Frente A Frente
TTITLE10=Caramelito
TTITLE11=Sombras... Nada Mas
TTITLE12=La Farsante
TTITLE13=Caricias
TTITLE14=Si Piensas... Si Quieres...
TTITLE15=Vestida De Blanco
TTITLE16=Para Toda La Vida
TTITLE17=Despues De Tu Amor
TTITLE18=Te Amo
TTITLE19=Como Han Pasado Los Años
EXTD=
EXTT0=
EXTT1=
EXTT2=
EXTT3=
EXTT4=
EXTT5=
EXTT6=
EXTT7=
EXTT8=
EXTT9=
EXTT10=
EXTT11=
EXTT12=
EXTT13=
EXTT14=
EXTT15=
EXTT16=
EXTT17=
EXTT18=
EXTT19=
PLAYORDER=
